<?xml version="1.0" standalone="no"?>
<!DOCTYPE svg PUBLIC "-//W3C//DTD SVG 20010904//EN"
 "http://www.w3.org/TR/2001/REC-SVG-20010904/DTD/svg10.dtd">
<svg version="1.0" xmlns="http://www.w3.org/2000/svg"
 width="594.000000pt" height="420.000000pt" viewBox="0 0 594.000000 420.000000"
 preserveAspectRatio="xMidYMid meet">

<g transform="translate(0.000000,420.000000) scale(0.100000,-0.100000)"
fill="#000000" stroke="none">
<path d="M2835 3979 c-377 -20 -698 -134 -1015 -359 -391 -278 -635 -688 -725
-1220 -22 -128 -31 -474 -16 -621 20 -202 83 -422 180 -624 64 -133 128 -230
229 -349 37 -43 66 -82 65 -87 -2 -5 2 -8 9 -6 7 1 13 -5 13 -13 0 -8 5 -14
11 -13 6 1 41 -25 80 -58 225 -195 579 -345 929 -394 306 -42 710 -24 1013 47
82 19 92 24 92 43 0 28 -39 38 -96 25 -21 -5 -106 -20 -189 -32 -129 -19 -192
-22 -450 -22 -269 -1 -313 2 -425 22 -628 113 -1103 512 -1296 1087 -91 273
-118 649 -69 985 106 730 668 1336 1374 1480 166 34 292 43 511 37 218 -6 360
-25 520 -71 81 -23 150 -30 150 -16 0 55 -302 142 -537 155 -200 11 -231 12
-358 4z"/>
<path d="M2765 3800 c-483 -55 -890 -304 -1166 -714 -140 -208 -226 -434 -275
-726 -24 -143 -24 -473 0 -615 83 -493 290 -830 671 -1091 141 -96 335 -173
560 -221 125 -26 142 -27 415 -28 291 0 377 8 570 52 181 41 233 68 201 107
-9 10 -27 8 -98 -11 -375 -101 -855 -109 -1188 -21 -415 109 -739 377 -920
762 -103 218 -142 394 -152 676 -6 210 5 344 44 520 138 626 638 1121 1226
1214 208 33 306 37 484 21 278 -25 488 -85 683 -197 22 -12 28 -14 15 -3 -11
9 -45 30 -76 46 -45 24 -56 35 -52 50 3 12 -1 21 -12 25 -11 5 -13 9 -5 14 28
17 -194 88 -378 120 -135 24 -422 34 -547 20z"/>
<path d="M3706 3005 c-6 -22 -12 -25 -51 -25 -39 0 -483 -53 -795 -94 -63 -9
-333 -43 -600 -76 -304 -39 -487 -65 -492 -73 -4 -7 -5 -19 -2 -27 3 -8 8 -31
11 -50 3 -19 21 -120 40 -225 35 -192 52 -287 73 -405 14 -84 40 -182 52 -195
6 -6 307 -12 846 -15 l837 -5 -4 -75 c-2 -41 -8 -81 -13 -87 -8 -10 -187 -13
-834 -13 l-823 0 -28 -24 c-27 -24 -27 -25 -10 -43 17 -17 63 -18 880 -21 693
-2 865 0 879 10 18 14 23 57 48 413 6 88 16 196 21 240 5 44 9 114 9 156 0 41
4 122 10 180 16 176 18 243 9 262 -6 11 -6 17 1 17 6 0 6 7 -2 20 -8 12 -19
18 -30 14 -16 -5 -18 2 -20 48 -1 29 -1 68 1 86 2 38 -4 42 -13 7z m-2 -113
c2 -4 0 -46 -5 -92 -6 -47 -16 -164 -22 -260 l-12 -175 -156 -3 -157 -2 -7
192 c-4 106 -5 218 -3 248 l3 55 90 12 c50 7 115 17 145 21 75 12 118 14 124
4z m-452 -282 c4 -124 5 -231 3 -238 -4 -10 -60 -12 -257 -10 l-253 3 -11 120
c-14 144 -17 265 -6 282 5 8 63 19 142 29 74 9 173 22 220 29 47 7 101 12 120
11 l35 -1 7 -225z m-630 60 c19 -247 20 -301 6 -299 -7 1 -20 -1 -28 -5 -9 -3
-88 -5 -175 -4 l-160 3 -12 115 c-15 145 -16 227 -3 235 5 3 65 13 132 21 68
8 128 16 133 19 6 2 30 3 55 2 l45 -2 7 -85z m-467 -62 c3 -51 7 -127 8 -168
l2 -75 -117 -3 -116 -3 -11 53 c-46 239 -45 227 -26 248 12 13 32 20 59 21 23
1 52 5 66 9 14 4 48 8 77 9 l51 1 7 -92z m19 -371 c3 -12 7 -62 11 -112 3 -49
8 -118 12 -152 l6 -63 -91 0 c-50 0 -93 3 -95 8 -8 11 -57 287 -57 315 0 14 4
27 10 29 5 2 52 2 105 0 88 -3 95 -5 99 -25z m421 24 l60 -6 6 -95 c4 -52 10
-130 14 -172 l8 -78 -190 0 -190 0 -12 128 c-14 160 -14 205 1 220 13 13 194
15 303 3z m661 -5 c1 0 5 -79 9 -173 l8 -173 -252 0 -251 0 0 33 c0 17 -5 89
-10 160 -5 70 -7 134 -4 142 7 18 92 23 324 17 96 -3 176 -5 176 -6z m391 2
c11 -15 -7 -325 -20 -345 -8 -13 -236 -16 -256 -4 -8 5 -11 58 -9 177 l3 169
80 6 c148 10 192 9 202 -3z"/>
<path d="M2151 2179 c1 -24 5 -55 9 -69 5 -15 6 1 3 40 -7 76 -13 93 -12 29z"/>
<path d="M3433 1497 c-71 -27 -120 -72 -142 -131 -36 -98 -23 -167 47 -239 61
-62 159 -82 260 -52 42 13 64 14 109 5 81 -14 84 -13 55 20 -15 17 -32 30 -40
30 -7 0 -11 4 -8 9 3 4 -12 13 -34 20 -31 9 -47 9 -82 -4 -96 -33 -185 -9
-226 63 -42 75 -19 153 56 191 83 42 170 27 223 -40 31 -39 59 -48 88 -30 21
14 -68 114 -127 142 -54 27 -134 34 -179 16z"/>
<path d="M2195 1383 c-97 -51 -129 -137 -84 -229 15 -33 32 -49 72 -68 71 -36
129 -35 189 3 56 36 82 80 82 141 0 58 -25 103 -76 140 -34 25 -50 30 -97 30
-31 -1 -69 -8 -86 -17z m135 -68 c34 -18 50 -43 50 -80 0 -98 -150 -132 -196
-44 -22 43 -17 68 20 105 38 38 77 44 126 19z"/>
</g>
</svg>
